<?xml version="1.0" encoding="UTF-8" standalone="no"?>
<!-- Created with Inkscape (http://www.inkscape.org/) -->

<svg
   xmlns:dc="http://purl.org/dc/elements/1.1/"
   xmlns:cc="http://creativecommons.org/ns#"
   xmlns:rdf="http://www.w3.org/1999/02/22-rdf-syntax-ns#"
   xmlns:svg="http://www.w3.org/2000/svg"
   xmlns="http://www.w3.org/2000/svg"
   xmlns:sodipodi="http://sodipodi.sourceforge.net/DTD/sodipodi-0.dtd"
   xmlns:inkscape="http://www.inkscape.org/namespaces/inkscape"
   id="svg2999"
   viewBox="0 0 128 128"
   version="1.1"
   inkscape:version="0.91 r13725"
   sodipodi:docname="simplefastfoodicon.svg">
  <defs
     id="defs9664" />
  <sodipodi:namedview
     pagecolor="#ffffff"
     bordercolor="#666666"
     borderopacity="1"
     objecttolerance="10"
     gridtolerance="10"
     guidetolerance="10"
     inkscape:pageopacity="0"
     inkscape:pageshadow="2"
     inkscape:window-width="1916"
     inkscape:window-height="1035"
     id="namedview9662"
     showgrid="false"
     inkscape:zoom="2.2697856"
     inkscape:cx="90.263581"
     inkscape:cy="66.934974"
     inkscape:window-x="4"
     inkscape:window-y="1"
     inkscape:window-maximized="1"
     inkscape:current-layer="layer1" />
  <g
     id="layer1"
     transform="translate(-193.14 -374.08)">
    <path
       style="fill:#000000"
       d="M 118.51758 5.6210938 C 118.02729 5.6093937 117.49878 5.6899831 117.03906 5.8769531 L 102.29492 11.722656 C 100.99493 12.222916 99.935703 13.514151 99.658203 14.994141 L 97.166016 28.847656 L 75.005859 28.847656 C 73.894869 28.847656 73.005859 29.818759 73.005859 31.037109 L 73.005859 41.457031 C 73.005859 42.674761 73.894819 43.650391 75.005859 43.650391 L 77.265625 43.650391 L 120.14062 43.650391 L 122.37109 43.650391 C 123.48209 43.650391 124.40039 42.674871 124.40039 41.457031 L 124.40039 31.037109 C 124.40039 29.818849 123.48204 28.847656 122.37109 28.847656 L 105.33398 28.847656 L 107.10156 19.1875 L 119.76367 14.201172 C 121.52986 13.532282 122.69685 11.329691 122.40039 9.3066406 C 122.10395 7.2837806 120.38584 5.6496237 118.51758 5.6210938 z M 46.578125 41.814453 A 40.146458 31.886082 0 0 0 25.541016 46.097656 A 40.146458 31.886082 0 0 0 9.2226562 60.339844 C 7.0755166 63.768163 5.4759523 67.617675 4.171875 72.017578 C 3.793615 73.397398 4.8833656 75.005926 6.1972656 75.003906 L 55.339844 75.003906 L 55.451172 75.054688 L 84.478516 75.054688 L 85.958984 74.408203 L 86.097656 74.558594 C 86.790786 73.989794 87.107313 72.924498 86.851562 72.017578 C 86.288328 69.95413 85.525533 68.008409 84.615234 66.154297 A 40.146458 31.886082 0 0 0 65.708984 46.068359 A 40.146458 31.886082 0 0 0 46.578125 41.814453 z M 77.265625 47.748047 L 77.265625 48.892578 C 83.954195 54.491778 88.948953 61.889931 91.314453 70.556641 L 91.314453 70.589844 C 92.114743 73.585464 91.260339 76.293806 89.449219 78.009766 L 89.314453 78.089844 L 90.353516 107.26562 L 115.92383 107.26562 L 116.02539 107.37695 L 118.14062 107.37695 C 119.25162 107.37695 120.14062 106.36896 120.14062 105.15039 L 120.14062 99.402344 L 120.14062 47.748047 L 77.265625 47.748047 z M 10.804688 81.041016 C 8.4986175 81.041016 6.5742188 83.694609 6.5742188 86.855469 C 6.5742188 90.016499 8.4986175 92.636719 10.804688 92.636719 L 59.128906 92.636719 L 81.166016 92.830078 C 83.472006 92.850478 86.087891 89.727369 86.087891 86.667969 C 86.087891 83.608779 84.163452 81.028136 81.857422 81.041016 L 68.494141 81.113281 L 68.427734 81.041016 L 10.804688 81.041016 z M 17.611328 95.685547 C 11.860068 95.686547 7.2669312 99.531609 6.8632812 104.23047 L 6.7773438 104.96094 L 7.8203125 104.96094 L 11.990234 104.96094 L 12.863281 104.96094 L 12.978516 104.35742 C 13.284076 102.22503 15.236191 100.67188 17.613281 100.67188 C 19.990361 100.67188 21.998591 102.22737 22.306641 104.35742 L 22.449219 104.96094 L 23.263672 104.96094 L 30.621094 104.96094 L 31.460938 104.96094 L 31.519531 104.35742 C 31.824991 102.22503 33.804401 100.67188 36.181641 100.67188 C 38.559071 100.67188 40.569243 102.22737 40.876953 104.35742 L 41.021484 104.96094 L 41.830078 104.96094 L 49.162109 104.96094 L 50.03125 104.96094 L 50.117188 104.35742 C 50.422767 102.22503 52.40368 100.67188 54.78125 100.67188 C 57.15816 100.67188 59.166729 102.22737 59.474609 104.35742 L 59.591797 104.96094 L 60.402344 104.96094 L 67.759766 104.96094 L 68.630859 104.96094 L 68.6875 104.35742 C 68.99288 102.22503 70.975946 100.67188 73.353516 100.67188 C 75.730436 100.67188 77.766169 102.22737 78.074219 104.35742 L 78.189453 104.96094 L 79.001953 104.96094 L 83.232422 104.96094 L 84.246094 104.96094 L 84.185547 104.23047 C 83.779577 99.529229 79.106186 95.685547 73.353516 95.685547 C 69.298046 95.685547 65.948255 97.651352 64.109375 100.41992 C 62.263105 97.647662 58.84007 95.685547 54.78125 95.685547 C 50.7142 95.685547 47.372242 97.699189 45.539062 100.48047 C 43.698502 97.694769 40.282197 95.685547 36.210938 95.685547 C 32.156307 95.685547 28.780626 97.651912 26.941406 100.41992 C 25.095816 97.647872 21.671321 95.686607 17.613281 95.685547 L 17.611328 95.685547 z M 8.3710938 108.04102 C 7.1824837 108.04102 6.2571387 108.42352 5.3867188 109.15625 C 4.9514487 109.52262 4.5013625 109.99336 4.2265625 110.87109 C 3.9520525 111.74932 4.2094906 113.0992 4.8066406 113.82227 L 8.8046875 118.68359 C 8.9130875 118.81539 9.1098906 119.23911 9.5878906 119.89258 C 10.065601 120.54663 11.209827 121.41602 12.398438 121.41602 L 78.654297 121.41602 C 79.842907 121.41602 81.016361 120.54663 81.494141 119.89258 C 81.971871 119.2389 82.135321 118.81533 82.244141 118.68359 L 86.246094 113.82227 C 86.842214 113.09908 87.071475 111.74896 86.796875 110.87109 C 86.522365 109.99348 86.070216 109.52262 85.634766 109.15625 C 84.764446 108.42339 83.869851 108.04102 82.681641 108.04102 L 8.3710938 108.04102 z "
       transform="translate(193.14,374.08)"
       id="rect4783-8-1" />
  </g>
  <metadata
     id="metadata9660">
    <rdf:RDF>
      <cc:Work>
        <dc:format>image/svg+xml</dc:format>
        <dc:type
           rdf:resource="http://purl.org/dc/dcmitype/StillImage" />
        <cc:license
           rdf:resource="http://creativecommons.org/licenses/publicdomain/" />
        <dc:publisher>
          <cc:Agent
             rdf:about="http://openclipart.org/">
            <dc:title>Openclipart</dc:title>
          </cc:Agent>
        </dc:publisher>
      </cc:Work>
      <cc:License
         rdf:about="http://creativecommons.org/licenses/publicdomain/">
        <cc:permits
           rdf:resource="http://creativecommons.org/ns#Reproduction" />
        <cc:permits
           rdf:resource="http://creativecommons.org/ns#Distribution" />
        <cc:permits
           rdf:resource="http://creativecommons.org/ns#DerivativeWorks" />
      </cc:License>
    </rdf:RDF>
  </metadata>
</svg>
